# xmcd
#
# Track frame offsets: 
#        150
#        13873
#        23911
#        35196
#        48639
#        58967
#        72093
#        83613
#        94668
#        104631
#        115436
#        129558
#        140026
#        149857
#        161458
#        175812
#        188106
#        202084
#        215223
#
# Disc length: 3043 seconds
#
# Revision: 2
# Processed by: cddbd v1.5.2PL0 Copyright (c) Steve Scherf et al.
# Submitted via: ExactAudioCopy v0.99pb4
#
DISCID=320be113
DTITLE=Various Artist - Dr. Boogie Presents - Rarities From The Bob Hite Vaults
DYEAR=1900
DGENRE=Blues
TTITLE0=Death Ray Boogie - Pete Johnson
TTITLE1=Wiggle Tail - Googie Rene
TTITLE2=The Itch - Chuck Higgins
TTITLE3=You Got Me Cryin - Johnny Otis
TTITLE4=Birth Of The Boogie - Bill Haley
TTITLE5=Taking My Chances - Clarence Brown
TTITLE6=Jump Sister Bessie - Otis Rush
TTITLE7=Good Rocking Daddy - Etta James
TTITLE8=Pachuca Hop - Mad Mel Sebastian
TTITLE9=Fool No More - Eddie Hope
TTITLE10=Blue Nights - The Hot Shots
TTITLE11=Eating And Sleeping - Earl King
TTITLE12=Lost Child - Eddie Hope
TTITLE13=Some Kinda Feeling - Elmore James
TTITLE14=Please Find My Baby - Elmore James
TTITLE15=Country Boogie - Elmore James
TTITLE16=She Just Won't Do Right - Elmore James
TTITLE17=Baby What's Wrong - Elmore James
TTITLE18=Sinful Woman - Elmore James
EXTD=
EXTT0=
EXTT1=
EXTT2=
EXTT3=
EXTT4=
EXTT5=
EXTT6=
EXTT7=
EXTT8=
EXTT9=
EXTT10=
EXTT11=
EXTT12=
EXTT13=
EXTT14=
EXTT15=
EXTT16=
EXTT17=
EXTT18=
PLAYORDER=
